<svg width="20" height="20" viewBox="0 0 20 20" fill="none" xmlns="http://www.w3.org/2000/svg">
    <path d="M6.97837 0V1.10122H13.0216V0H14.4173V1.10122H18.6043C18.957 1.10028 19.297 1.22557 19.556 1.45189C19.8149 1.67821 19.9735 1.98878 20 2.32113V12.9179C20.0006 13.226 19.8871 13.5247 19.679 13.762L19.5953 13.8477L13.4892 19.6175C13.2573 19.8372 12.9509 19.9727 12.6239 20H3.48919C2.58979 20.0008 1.7248 19.6734 1.07469 19.0862C0.424585 18.4989 0.0395784 17.6971 5.54093e-06 16.848V2.42005C-0.000987764 2.08675 0.131602 1.76546 0.37111 1.52079C0.610619 1.27612 0.939281 1.12622 1.291 1.10122H5.5827V0H6.97837ZM18.6043 7.69535H1.39568V16.7029C1.39472 17.2077 1.59796 17.6937 1.9638 18.0614C2.32963 18.4292 2.8304 18.6509 3.36358 18.6812H11.1654V14.9489C11.1645 14.099 11.511 13.2817 12.1325 12.6673C12.754 12.053 13.6025 11.6892 14.501 11.6518H18.6043V7.69535ZM18.5485 12.9707H14.6546C14.1204 12.9697 13.6061 13.1618 13.2169 13.5075C12.8277 13.8532 12.5931 14.3264 12.5611 14.8302V18.6284L18.5485 12.9707ZM5.5827 2.42005H1.39568V6.37652H18.6043V2.42005H14.4173V3.51467H13.0216V2.42005H6.97837V3.51467H5.5827V2.42005Z" fill="#0A0A0A"/>
    </svg>
    