<svg width="18" height="20" viewBox="0 0 18 20" fill="none" xmlns="http://www.w3.org/2000/svg">
    <path d="M14.6242 5.54093e-06C14.9654 -0.000987764 15.2944 0.131602 15.5449 0.37111C15.7954 0.610619 15.9489 0.939281 15.9745 1.291V18.6043H18V20H0V18.6043H2.02551V1.39568C2.02455 1.04297 2.15283 0.702956 2.38456 0.444028C2.61629 0.1851 2.93427 0.0264578 3.27457 5.54093e-06H3.37584H14.6242ZM11.9235 1.39568H3.37584V18.6043H11.9235V1.39568ZM14.6242 1.39568H13.2738V18.6043H14.6242V1.39568ZM9.89797 9.07188C10.0159 9.07188 10.1327 9.09589 10.2416 9.14253C10.3506 9.18917 10.4496 9.25754 10.5329 9.34372C10.6163 9.4299 10.6825 9.53222 10.7276 9.64482C10.7727 9.75743 10.7959 9.87812 10.7959 10C10.7959 10.1219 10.7727 10.2426 10.7276 10.3552C10.6825 10.4678 10.6163 10.5701 10.5329 10.6563C10.4496 10.7425 10.3506 10.8108 10.2416 10.8575C10.1327 10.9041 10.0159 10.9281 9.89797 10.9281C9.65982 10.9281 9.43141 10.8303 9.26301 10.6563C9.09461 10.4822 9 10.2462 9 10C9 9.75385 9.09461 9.51778 9.26301 9.34372C9.43141 9.16966 9.65982 9.07188 9.89797 9.07188Z" fill="#0A0A0A"/>
    </svg>
    