<svg width="17" height="17" viewBox="0 0 17 17" fill="none" xmlns="http://www.w3.org/2000/svg">
    <path
        d="M10.9196 10.9196L15.5 15.5M6.84821 12.4464C7.58338 12.4464 8.31135 12.3016 8.99056 12.0203C9.66977 11.739 10.2869 11.3266 10.8067 10.8067C11.3266 10.2869 11.739 9.66977 12.0203 8.99056C12.3016 8.31135 12.4464 7.58338 12.4464 6.84821C12.4464 6.11305 12.3016 5.38508 12.0203 4.70587C11.739 4.02666 11.3266 3.40952 10.8067 2.88968C10.2869 2.36984 9.66977 1.95748 8.99056 1.67614C8.31135 1.3948 7.58338 1.25 6.84821 1.25C5.36348 1.25 3.93955 1.83981 2.88968 2.88968C1.83981 3.93955 1.25 5.36348 1.25 6.84821C1.25 8.33295 1.83981 9.75688 2.88968 10.8067C3.93955 11.8566 5.36348 12.4464 6.84821 12.4464Z"
        stroke="#0A0A0A" stroke-width="2" />
</svg>
    